<?xml version="1.0" encoding="UTF-8" standalone="no"?>
<!DOCTYPE svg PUBLIC "-//W3C//DTD SVG 1.1//EN" "http://www.w3.org/Graphics/SVG/1.1/DTD/svg11.dtd">
<svg width="100%" height="100%" viewBox="0 0 100 100" version="1.1" xmlns="http://www.w3.org/2000/svg" xmlns:xlink="http://www.w3.org/1999/xlink" xml:space="preserve" style="fill-rule:evenodd;clip-rule:evenodd;stroke-linejoin:round;stroke-miterlimit:1.41421;">
    <g transform="matrix(1,0,0,1,-28.8535,39.8509)">
        <path d="M66.762,9.298L45.424,9.298L44.35,6.808L67.153,6.808C67.673,3.813 68.162,0.819 68.617,-2.176C69.431,-6.896 70.245,-12.105 71.059,-17.801L71.352,-20.487L40.151,-20.487L39.223,-22.977L105.629,-22.977L111.049,-29.959L112.221,-28.885C114.337,-26.965 116.339,-24.8 118.227,-22.391L117.25,-20.487L77.748,-20.487L77.455,-17.996C75.991,-8.263 74.786,-0.63 73.842,4.904L73.549,6.808L95.522,6.808L99.721,1.73C104.083,5.148 106.264,7.345 106.264,8.322C106.264,8.615 106.052,8.908 105.629,9.201L102.553,11.105L102.553,46.115L112.367,46.115L117.543,39.035C119.92,41.313 122.084,43.771 124.037,46.408L122.866,48.605L35.561,48.605L34.438,46.115L59.633,46.115L60.219,43.234C62.953,30.474 65.134,19.162 66.762,9.298ZM73.159,9.298L71.547,18.283C69.659,28.374 67.983,36.658 66.518,43.136L65.932,46.115L96.645,46.115L96.645,9.298L73.159,9.298Z" style="fill-rule:nonzero;"/>
    </g>
</svg>
