<?xml version="1.0" encoding="UTF-8" standalone="no"?>
<!DOCTYPE svg PUBLIC "-//W3C//DTD SVG 1.1//EN" "http://www.w3.org/Graphics/SVG/1.1/DTD/svg11.dtd">
<svg version="1.1" xmlns="http://www.w3.org/2000/svg" xmlns:xlink="http://www.w3.org/1999/xlink" preserveAspectRatio="xMidYMid meet" viewBox="0 0 640 640" width="640" height="640"><defs><path d="M640 320C640 496.61 496.61 640 320 640C143.39 640 0 496.61 0 320C0 143.39 143.39 0 320 0C496.61 0 640 143.39 640 320Z" id="b2QlfvwpH4"></path><path d="M600 319.89C600 472.5 474.54 596.4 320 596.4C165.46 596.4 40 472.5 40 319.89C40 167.28 165.46 43.37 320 43.37C474.54 43.37 600 167.28 600 319.89Z" id="f4hSY17DuE"></path><path d="M560 320C560 452.46 452.46 560 320 560C187.54 560 80 452.46 80 320C80 187.54 187.54 80 320 80C452.46 80 560 187.54 560 320Z" id="c1jjdyKCKR"></path><path d="M515.45 318.05C515.45 427.36 426.86 516.1 317.73 516.1C208.6 516.1 120 427.36 120 318.05C120 208.74 208.6 120 317.73 120C426.86 120 515.45 208.74 515.45 318.05Z" id="aXj9QMACh"></path><path d="M370 233.64C370 261.23 347.6 283.64 320 283.64C292.4 283.64 270 261.23 270 233.64C270 206.04 292.4 183.64 320 183.64C347.6 183.64 370 206.04 370 233.64Z" id="c7LVc3Brm"></path><path d="M420 460C431.05 460 440 468.95 440 480C440 496 440 524 440 540C440 551.05 431.05 560 420 560C376 560 264 560 220 560C208.95 560 200 551.05 200 540C200 524 200 496 200 480C200 468.95 208.95 460 220 460C264 460 376 460 420 460Z" id="i4KC8Txnfa"></path><path d="M295 300L345 300L345 545.15L295 545.15L295 300Z" id="bC91u6x7Z"></path></defs><g><g><g><use xlink:href="#b2QlfvwpH4" opacity="1" fill="#000000" fill-opacity="1"></use></g><g><use xlink:href="#f4hSY17DuE" opacity="1" fill="#ffffff" fill-opacity="1"></use></g><g><use xlink:href="#c1jjdyKCKR" opacity="1" fill="#000000" fill-opacity="1"></use></g><g><use xlink:href="#aXj9QMACh" opacity="1" fill="#ffffff" fill-opacity="1"></use></g><g><use xlink:href="#c7LVc3Brm" opacity="1" fill="#ff0000" fill-opacity="1"></use></g><g><use xlink:href="#i4KC8Txnfa" opacity="1" fill="#ffffff" fill-opacity="1"></use></g><g><use xlink:href="#bC91u6x7Z" opacity="1" fill="#000000" fill-opacity="1"></use></g></g></g></svg>